<svg xmlns="http://www.w3.org/2000/svg" version="1.1" xmlns:xlink="http://www.w3.org/1999/xlink" xmlns:svgjs="http://svgjs.com/svgjs" width="1440" height="560" preserveAspectRatio="none" viewBox="0 0 1440 560"><g mask="url(&quot;#SvgjsMask1029&quot;)" fill="none"><rect width="1440" height="560" x="0" y="0" fill="rgba(25, 25, 25, 1)"></rect><path d="M 0,49 C 57.6,68 172.8,132.2 288,144 C 403.2,155.8 460.8,86.4 576,108 C 691.2,129.6 748.8,252.8 864,252 C 979.2,251.2 1036.8,120.6 1152,104 C 1267.2,87.4 1382.4,156 1440,169L1440 560L0 560z" fill="rgba(65, 65, 65, 1)"></path><path d="M 0,551 C 96,509.4 288,358.8 480,343 C 672,327.2 768,459 960,472 C 1152,485 1344,420.8 1440,408L1440 560L0 560z" fill="rgba(47, 47, 47, 1)"></path></g><defs><mask id="SvgjsMask1029"><rect width="1440" height="560" fill="#ffffff"></rect></mask></defs></svg>