<svg xmlns="http://www.w3.org/2000/svg" version="1.1" xmlns:xlink="http://www.w3.org/1999/xlink" xmlns:svgjs="http://svgjs.com/svgjs" width="1440" height="637" preserveAspectRatio="none" viewBox="0 0 1440 637"><g mask="url(&quot;#SvgjsMask1085&quot;)" fill="none"><rect width="1440" height="637" x="0" y="0" fill="rgba(25, 25, 25, 1)"></rect><path d="M 0,196 C 57.6,168.8 172.8,52.2 288,60 C 403.2,67.8 460.8,232.2 576,235 C 691.2,237.8 748.8,86.6 864,74 C 979.2,61.4 1036.8,181 1152,172 C 1267.2,163 1382.4,57.6 1440,29L1440 637L0 637z" fill="rgba(65, 65, 65, 1)"></path><path d="M 0,375 C 96,407.8 288,544.6 480,539 C 672,533.4 768,350 960,347 C 1152,344 1344,488.6 1440,524L1440 637L0 637z" fill="rgba(47, 47, 47, 1)"></path></g><defs><mask id="SvgjsMask1085"><rect width="1440" height="637" fill="#ffffff"></rect></mask></defs></svg>